<svg width="26" height="16" viewBox="0 0 26 16" fill="none" xmlns="http://www.w3.org/2000/svg">
<path d="M25.8333 2.99781C25.8371 3.6664 25.5748 4.30889 25.1037 4.78335L15.0441 14.843V14.8434C14.573 15.3116 13.9355 15.5747 13.2712 15.5747C12.6068 15.5747 11.9694 15.3116 11.4982 14.8434L1.43821 4.78334C0.883719 4.13622 0.695099 3.25163 0.93677 2.43442C1.17844 1.61721 1.81798 0.977629 2.63521 0.735979C3.45285 0.494308 4.337 0.682928 4.98456 1.23742L13.2586 9.51149L21.5327 1.23742C22.0026 0.763764 22.6413 0.49641 23.3082 0.493467C23.9751 0.490941 24.6159 0.753246 25.0895 1.22268C25.5628 1.69255 25.8306 2.3308 25.8335 2.99776L25.8333 2.99781Z" fill="#1B2040"/>
</svg>
