<svg width="73" height="70" viewBox="0 0 73 70" fill="none" xmlns="http://www.w3.org/2000/svg">
<path d="M0 0H67C70.3137 0 73 2.68629 73 6V64C73 67.3137 70.3137 70 67 70H0V0Z" fill="white"/>
<path d="M49.8333 29.9978C49.8371 30.6664 49.5748 31.3089 49.1037 31.7833L39.0441 41.843V41.8434C38.573 42.3116 37.9355 42.5747 37.2712 42.5747C36.6068 42.5747 35.9694 42.3116 35.4982 41.8434L25.4382 31.7833C24.8837 31.1362 24.6951 30.2516 24.9368 29.4344C25.1784 28.6172 25.818 27.9776 26.6352 27.736C27.4528 27.4943 28.337 27.6829 28.9846 28.2374L37.2586 36.5115L45.5327 28.2374C46.0026 27.7638 46.6413 27.4964 47.3082 27.4935C47.9751 27.4909 48.6159 27.7532 49.0895 28.2227C49.5628 28.6926 49.8306 29.3308 49.8335 29.9978L49.8333 29.9978Z" fill="#1B2040"/>
</svg>
