<svg width="63" height="60" viewBox="0 0 63 60" fill="none" xmlns="http://www.w3.org/2000/svg">
<path d="M0 0H56.5714C59.8851 0 62.5714 2.68629 62.5714 6V54C62.5714 57.3137 59.8851 60 56.5714 60H0V0Z" fill="white"/>
<path d="M42.7141 25.7124C42.7173 26.2855 42.4925 26.8362 42.0887 27.2429L33.4662 35.8654V35.8658C33.0623 36.2671 32.516 36.4926 31.9465 36.4926C31.377 36.4926 30.8307 36.2671 30.4269 35.8658L21.804 27.2429C21.3287 26.6882 21.167 25.93 21.3742 25.2295C21.5813 24.529 22.1295 23.9808 22.83 23.7737C23.5308 23.5666 24.2886 23.7282 24.8437 24.2035L31.9358 31.2956L39.0278 24.2035C39.4306 23.7975 39.978 23.5684 40.5497 23.5658C41.1213 23.5637 41.6706 23.7885 42.0765 24.1909C42.4822 24.5936 42.7117 25.1407 42.7142 25.7124L42.7141 25.7124Z" fill="#1B2040"/>
</svg>
