<?xml version="1.0" standalone="no"?>
<!DOCTYPE svg PUBLIC "-//W3C//DTD SVG 20010904//EN"
 "http://www.w3.org/TR/2001/REC-SVG-20010904/DTD/svg10.dtd">
<svg version="1.0" xmlns="http://www.w3.org/2000/svg"
 width="500.000000pt" height="500.000000pt" viewBox="0 0 500.000000 500.000000"
 preserveAspectRatio="xMidYMid meet">
<metadata>
Created by potrace 1.14, written by Peter Selinger 2001-2017
</metadata>
<g transform="translate(0.000000,500.000000) scale(0.100000,-0.100000)"
fill="#000000" stroke="none">
<path d="M3015 4458 c-45 -16 -108 -62 -137 -100 -80 -105 -119 -261 -98 -391
16 -101 46 -170 98 -228 57 -63 109 -89 182 -89 247 0 396 383 256 659 -31 59
-115 137 -164 151 -46 12 -98 12 -137 -2z"/>
<path d="M3848 4246 c-148 -53 -267 -201 -304 -378 -31 -145 11 -286 104 -351
43 -30 53 -32 127 -32 96 0 148 22 230 97 140 128 206 334 157 494 -25 81 -66
134 -125 163 -50 24 -132 27 -189 7z"/>
<path d="M2333 3935 c-60 -30 -101 -78 -141 -162 -25 -54 -27 -67 -27 -183 1
-107 4 -133 24 -180 108 -260 358 -276 475 -30 30 62 31 71 31 190 0 107 -4
133 -24 183 -48 120 -136 197 -234 204 -42 4 -62 -1 -104 -22z"/>
<path d="M3234 3541 c-59 -15 -138 -67 -224 -147 -139 -130 -235 -188 -401
-245 -116 -39 -122 -42 -177 -93 -90 -82 -127 -178 -120 -305 6 -101 40 -173
114 -240 82 -75 155 -106 334 -141 200 -39 345 -77 552 -145 148 -49 176 -55
251 -55 142 0 247 47 307 137 38 58 52 109 52 193 1 97 -23 165 -101 283 -97
147 -140 229 -215 409 -36 86 -72 171 -81 189 -24 46 -94 118 -135 139 -43 22
-114 31 -156 21z"/>
<path d="M4205 3467 c-66 -22 -106 -47 -162 -99 -103 -98 -154 -210 -155 -341
0 -67 4 -86 28 -135 129 -251 518 -70 576 266 21 125 -16 231 -100 287 -46 30
-131 40 -187 22z"/>
<path d="M1335 2512 c-138 -65 -176 -277 -84 -462 91 -180 270 -249 385 -148
56 49 77 100 82 199 7 131 -30 238 -111 326 -84 91 -189 124 -272 85z"/>
<path d="M2007 2250 c-50 -15 -95 -58 -123 -117 -25 -51 -28 -68 -28 -148 1
-141 53 -250 153 -320 37 -26 51 -30 111 -30 61 0 72 3 107 31 87 71 118 219
74 361 -47 153 -185 258 -294 223z"/>
<path d="M730 2138 c-181 -51 -188 -312 -13 -487 83 -82 157 -116 254 -116 66
0 81 4 117 28 76 50 106 148 78 258 -39 148 -155 272 -295 313 -61 18 -90 19
-141 4z"/>
<path d="M1362 1689 c-83 -42 -121 -128 -122 -279 -1 -142 -36 -275 -111 -420
-29 -57 -33 -75 -33 -145 -1 -68 3 -89 27 -137 36 -74 112 -143 180 -163 122
-36 242 -6 392 100 99 70 251 158 411 238 128 64 158 84 203 132 76 84 86 107
86 200 0 69 -4 86 -27 126 -32 54 -91 110 -148 139 -23 12 -89 30 -146 41
-130 25 -221 54 -388 126 -112 48 -142 57 -206 60 -63 4 -82 1 -118 -18z"/>
<path d="M621 1438 c-48 -17 -98 -70 -112 -120 -46 -171 135 -400 327 -416 78
-6 120 5 164 44 48 43 64 88 58 163 -14 199 -264 387 -437 329z"/>
</g>
</svg>
